<svg xmlns="http://www.w3.org/2000/svg" viewBox="0 0 32 32">
  <defs>
    <linearGradient id="g" x1="0%" y1="0%" x2="100%" y2="100%">
      <stop offset="0%" style="stop-color:#1E40AF"/>
      <stop offset="100%" style="stop-color:#3B82F6"/>
    </linearGradient>
  </defs>
  <rect width="32" height="32" rx="8" fill="url(#g)"/>
  <line x1="7" y1="10" x2="25" y2="10" stroke="rgba(255,255,255,0.3)" stroke-width="0.8"/>
  <line x1="7" y1="15" x2="25" y2="15" stroke="rgba(255,255,255,0.3)" stroke-width="0.8"/>
  <line x1="7" y1="20" x2="25" y2="20" stroke="rgba(255,255,255,0.3)" stroke-width="0.8"/>
  <line x1="12" y1="7" x2="12" y2="25" stroke="rgba(255,255,255,0.3)" stroke-width="0.8"/>
  <line x1="17" y1="7" x2="17" y2="25" stroke="rgba(255,255,255,0.3)" stroke-width="0.8"/>
  <line x1="22" y1="7" x2="22" y2="25" stroke="rgba(255,255,255,0.3)" stroke-width="0.8"/>
  <rect x="8" y="11" width="3.5" height="3.5" rx="0.8" fill="#22c55e"/>
  <rect x="13" y="11" width="3.5" height="3.5" rx="0.8" fill="#f59e0b"/>
  <rect x="18" y="11" width="3.5" height="3.5" rx="0.8" fill="#22c55e"/>
  <rect x="8"  y="16" width="3.5" height="3.5" rx="0.8" fill="#60A5FA"/>
  <rect x="13" y="16" width="3.5" height="3.5" rx="0.8" fill="#22c55e"/>
  <rect x="18" y="16" width="3.5" height="3.5" rx="0.8" fill="#ef4444"/>
  <circle cx="25" cy="8" r="4.5" fill="#0D1B2A" stroke="white" stroke-width="1"/>
  <circle cx="25" cy="6.8" r="1.6" fill="white"/>
  <path d="M25 8.2 L25 11" stroke="white" stroke-width="1" stroke-linecap="round"/>
</svg>