<svg xmlns="http://www.w3.org/2000/svg" viewBox="0 0 240 60" width="240" height="60">
  <defs>
    <linearGradient id="grad" x1="0%" y1="0%" x2="100%" y2="100%">
      <stop offset="0%" style="stop-color:#1E40AF"/>
      <stop offset="100%" style="stop-color:#3B82F6"/>
    </linearGradient>
  </defs>
  <!-- Icon background -->
  <rect x="2" y="2" width="56" height="56" rx="14" fill="url(#grad)"/>
  <!-- Grid lines (lot grid) -->
  <line x1="14" y1="18" x2="46" y2="18" stroke="rgba(255,255,255,0.35)" stroke-width="1.2"/>
  <line x1="14" y1="26" x2="46" y2="26" stroke="rgba(255,255,255,0.35)" stroke-width="1.2"/>
  <line x1="14" y1="34" x2="46" y2="34" stroke="rgba(255,255,255,0.35)" stroke-width="1.2"/>
  <line x1="14" y1="42" x2="46" y2="42" stroke="rgba(255,255,255,0.35)" stroke-width="1.2"/>
  <line x1="22" y1="14" x2="22" y2="46" stroke="rgba(255,255,255,0.35)" stroke-width="1.2"/>
  <line x1="30" y1="14" x2="30" y2="46" stroke="rgba(255,255,255,0.35)" stroke-width="1.2"/>
  <line x1="38" y1="14" x2="38" y2="46" stroke="rgba(255,255,255,0.35)" stroke-width="1.2"/>
  <!-- Colored lots -->
  <rect x="15" y="19" width="6.5" height="6.5" rx="1.5" fill="#22c55e" opacity="0.95"/>
  <rect x="23" y="19" width="6.5" height="6.5" rx="1.5" fill="#22c55e" opacity="0.95"/>
  <rect x="31" y="19" width="6.5" height="6.5" rx="1.5" fill="#f59e0b" opacity="0.95"/>
  <rect x="39" y="19" width="6.5" height="6.5" rx="1.5" fill="#22c55e" opacity="0.95"/>
  <rect x="15" y="27" width="6.5" height="6.5" rx="1.5" fill="#3b82f6" opacity="0.95"/>
  <rect x="23" y="27" width="6.5" height="6.5" rx="1.5" fill="#3b82f6" opacity="0.95"/>
  <rect x="31" y="27" width="6.5" height="6.5" rx="1.5" fill="#22c55e" opacity="0.95"/>
  <rect x="39" y="27" width="6.5" height="6.5" rx="1.5" fill="#ef4444" opacity="0.95"/>
  <rect x="15" y="35" width="6.5" height="6.5" rx="1.5" fill="#22c55e" opacity="0.95"/>
  <rect x="23" y="35" width="6.5" height="6.5" rx="1.5" fill="#f59e0b" opacity="0.95"/>
  <rect x="31" y="35" width="6.5" height="6.5" rx="1.5" fill="#3b82f6" opacity="0.95"/>
  <rect x="39" y="35" width="6.5" height="6.5" rx="1.5" fill="#22c55e" opacity="0.95"/>
  <!-- Map pin overlay -->
  <circle cx="46" cy="14" r="7" fill="#1E40AF" stroke="white" stroke-width="1.5"/>
  <circle cx="46" cy="12.5" r="2.5" fill="white"/>
  <path d="M46 15 L46 19" stroke="white" stroke-width="1.5" stroke-linecap="round"/>
  <!-- Text: Lucky -->
  <text x="72" y="24" font-family="system-ui,-apple-system,sans-serif" font-size="11" font-weight="600" fill="#94A3B8" letter-spacing="2">LUCKY</text>
  <!-- Text: LarmHub -->
  <text x="70" y="43" font-family="system-ui,-apple-system,sans-serif" font-size="20" font-weight="700" fill="#1E293B" letter-spacing="-0.5">
    <tspan fill="#1E40AF">Larm</tspan><tspan fill="#1E293B">Hub</tspan>
  </text>
</svg>